<svg width="15" height="8" viewBox="0 0 15 8" fill="none" xmlns="http://www.w3.org/2000/svg">
<path d="M10.3893 0.994868C10.2616 0.865184 10.0881 0.791622 9.90658 0.79012C9.72514 0.788734 9.5505 0.85964 9.42086 0.987362L4.35859 6.01515L2.1581 3.72576C2.0317 3.59342 1.8582 3.51709 1.67573 3.51362C1.49325 3.51016 1.31699 3.57991 1.18577 3.70728C1.05454 3.83477 0.979278 4.00951 0.976519 4.19289C0.97376 4.37627 1.04374 4.5532 1.17106 4.68461L3.85416 7.479C3.98251 7.61065 4.15809 7.68513 4.34147 7.68594H4.34905C4.529 7.68536 4.70146 7.61376 4.82948 7.4865L10.383 1.96797V1.96808C10.5119 1.83955 10.5849 1.66506 10.586 1.48272C10.5872 1.30025 10.5164 1.12485 10.3892 0.994688L10.3893 0.994868Z" fill="white"/>
<path d="M7.97276 7.47961C8.10077 7.61091 8.27578 7.6854 8.45872 7.68655H8.4663C8.64625 7.68598 8.81883 7.61438 8.94673 7.48712L14.5003 1.96858V1.96869C14.6558 1.79259 14.7113 1.54893 14.6475 1.32236C14.5836 1.0959 14.409 0.917697 14.1846 0.850027C13.9602 0.782239 13.717 0.834206 13.5394 0.987797L8.47948 6.01588L8.29896 5.82753H8.29884C8.17256 5.69519 7.99894 5.61886 7.81647 5.6154C7.63411 5.61193 7.45774 5.68157 7.32651 5.80906C7.1954 5.93655 7.12003 6.11128 7.11727 6.29466C7.11451 6.47804 7.1846 6.65498 7.31192 6.78627L7.97276 7.47961Z" fill="white"/>
</svg>
