<svg width="146" height="70" viewBox="0 0 146 70" fill="none" xmlns="http://www.w3.org/2000/svg">
<g filter="url(#filter0_d_458_2369)">
<rect x="21.2349" y="17.874" width="26.4706" height="26.6026" rx="13.2353" fill="#748393"/>
</g>
<ellipse cx="40.5205" cy="33.329" rx="1.89076" ry="1.90018" fill="#C4C4C4"/>
<ellipse cx="34.47" cy="29.5283" rx="1.89076" ry="1.90018" fill="#F1F1F1"/>
<ellipse cx="28.4194" cy="33.329" rx="1.89076" ry="1.90018" fill="#C4C4C4"/>
<path d="M62.7617 34.7012C62.8822 34.8444 62.9977 34.9486 63.1084 35.0137C63.2191 35.0788 63.3363 35.1113 63.46 35.1113C63.6878 35.1113 63.8473 35.0365 63.9385 34.8867C64.0329 34.737 64.0801 34.4587 64.0801 34.0518V28.8516H65.2324V34.4277C65.2324 35.0332 65.099 35.4792 64.832 35.7656C64.5651 36.0488 64.1484 36.1904 63.582 36.1904C63.2695 36.1904 62.9863 36.1302 62.7324 36.0098C62.4818 35.8893 62.2441 35.7021 62.0195 35.4482L62.7617 34.7012ZM70.3154 33.7002C70.3154 33.2705 70.1771 32.9076 69.9004 32.6113C69.6237 32.3118 69.2852 32.1621 68.8848 32.1621C68.4876 32.1621 68.1491 32.3118 67.8691 32.6113C67.5924 32.9076 67.4541 33.2705 67.4541 33.7002C67.4541 34.1299 67.5924 34.4945 67.8691 34.7939C68.1491 35.0902 68.4876 35.2383 68.8848 35.2383C69.2819 35.2383 69.6188 35.0902 69.8955 34.7939C70.1755 34.4945 70.3154 34.1299 70.3154 33.7002ZM66.3359 33.6904C66.3359 33.3519 66.3994 33.0329 66.5264 32.7334C66.6566 32.4307 66.8421 32.1621 67.083 31.9277C67.3206 31.6966 67.5941 31.5192 67.9033 31.3955C68.2126 31.2718 68.5365 31.21 68.875 31.21C69.2233 31.21 69.5505 31.2718 69.8564 31.3955C70.1657 31.5192 70.4424 31.7015 70.6865 31.9424C70.9307 32.18 71.1162 32.4486 71.2432 32.748C71.3701 33.0475 71.4336 33.3617 71.4336 33.6904C71.4336 34.0322 71.3701 34.3529 71.2432 34.6523C71.1195 34.9518 70.9372 35.2171 70.6963 35.4482C70.4424 35.6924 70.1608 35.8763 69.8516 36C69.5423 36.127 69.2168 36.1904 68.875 36.1904C68.5397 36.1904 68.2174 36.127 67.9082 36C67.599 35.8763 67.3239 35.6956 67.083 35.458C66.8389 35.2171 66.6533 34.9469 66.5264 34.6475C66.3994 34.348 66.3359 34.029 66.3359 33.6904ZM72.5566 36V28.4316H73.5527V32.1279C73.7643 31.8089 74.0133 31.5762 74.2998 31.4297C74.5863 31.2832 74.9346 31.21 75.3447 31.21C75.6898 31.21 75.9827 31.2653 76.2236 31.376C76.4678 31.4834 76.6582 31.6445 76.7949 31.8594C76.8763 31.9863 76.9349 32.1344 76.9707 32.3037C77.0065 32.473 77.0244 32.7692 77.0244 33.1924V36H75.9551V33.6221C75.9551 33.0133 75.8802 32.6097 75.7305 32.4111C75.584 32.2093 75.3219 32.1084 74.9443 32.1084C74.6969 32.1084 74.4756 32.154 74.2803 32.2451C74.0882 32.3363 73.9368 32.4648 73.8262 32.6309C73.748 32.7415 73.6927 32.8848 73.6602 33.0605C73.6309 33.2331 73.6162 33.5098 73.6162 33.8906V36H72.5566ZM78.4355 36V31.3711H79.4316V32.1279C79.6432 31.8089 79.8923 31.5762 80.1787 31.4297C80.4652 31.2832 80.8135 31.21 81.2236 31.21C81.5687 31.21 81.8617 31.2653 82.1025 31.376C82.3467 31.4834 82.5371 31.6445 82.6738 31.8594C82.7552 31.9863 82.8138 32.1344 82.8496 32.3037C82.8854 32.473 82.9033 32.7692 82.9033 33.1924V36H81.834V33.6221C81.834 33.0133 81.7591 32.6097 81.6094 32.4111C81.4629 32.2093 81.2008 32.1084 80.8232 32.1084C80.5758 32.1084 80.3545 32.154 80.1592 32.2451C79.9671 32.3363 79.8158 32.4648 79.7051 32.6309C79.627 32.7415 79.5716 32.8848 79.5391 33.0605C79.5098 33.2331 79.4951 33.5098 79.4951 33.8906V36H78.4355ZM87.2393 29.3691C87.2393 29.1901 87.3044 29.0355 87.4346 28.9053C87.568 28.7751 87.7259 28.71 87.9082 28.71C88.097 28.71 88.2533 28.7734 88.377 28.9004C88.5039 29.0241 88.5674 29.1803 88.5674 29.3691C88.5674 29.5579 88.5039 29.7174 88.377 29.8477C88.25 29.9746 88.0938 30.0381 87.9082 30.0381C87.7259 30.0381 87.568 29.973 87.4346 29.8428C87.3044 29.7093 87.2393 29.5514 87.2393 29.3691ZM87.3809 36V31.3711H88.4404V36H87.3809ZM89.4268 35.1602L90.3057 34.6816C90.3708 34.9128 90.4912 35.0885 90.667 35.209C90.8428 35.3294 91.069 35.3896 91.3457 35.3896C91.5833 35.3896 91.7689 35.3359 91.9023 35.2285C92.0391 35.1178 92.1074 34.9681 92.1074 34.7793C92.1074 34.5286 91.8665 34.3138 91.3848 34.1348C91.222 34.0762 91.0967 34.0273 91.0088 33.9883C90.514 33.7832 90.1673 33.5749 89.9688 33.3633C89.7734 33.1517 89.6758 32.8945 89.6758 32.5918C89.6758 32.1784 89.8369 31.8431 90.1592 31.5859C90.4847 31.3288 90.9144 31.2002 91.4482 31.2002C91.8063 31.2002 92.1123 31.2669 92.3662 31.4004C92.6234 31.5306 92.8105 31.7178 92.9277 31.9619L92.1758 32.4795C92.1204 32.333 92.0228 32.2174 91.8828 32.1328C91.7461 32.0449 91.5866 32.001 91.4043 32.001C91.2025 32.001 91.0397 32.0498 90.916 32.1475C90.7956 32.2419 90.7354 32.3688 90.7354 32.5283C90.7354 32.7692 91.0088 32.9889 91.5557 33.1875C91.7282 33.2493 91.8617 33.2998 91.9561 33.3389C92.3825 33.5081 92.6868 33.7002 92.8691 33.915C93.0547 34.1266 93.1475 34.3919 93.1475 34.7109C93.1475 35.1732 92.9798 35.5361 92.6445 35.7998C92.3092 36.0602 91.847 36.1904 91.2578 36.1904C90.8053 36.1904 90.4294 36.1058 90.1299 35.9365C89.8304 35.7673 89.596 35.5085 89.4268 35.1602ZM97.4834 36V32.2988H96.6729V31.3711H97.4834V29.6182H98.543V31.3711H99.3535V32.2988H98.543V36H97.4834ZM101.067 38.1777H99.9785L101.248 35.5996L99.5488 31.3711H100.721L101.57 33.7686C101.619 33.915 101.661 34.0648 101.697 34.2178C101.736 34.3675 101.767 34.5205 101.79 34.6768C101.832 34.514 101.933 34.2552 102.093 33.9004L102.117 33.8418L103.26 31.3711H104.407L101.067 38.1777ZM106.014 33.6709C106.014 34.1494 106.132 34.5319 106.37 34.8184C106.611 35.1048 106.927 35.248 107.317 35.248C107.718 35.248 108.027 35.1146 108.245 34.8477C108.466 34.5807 108.577 34.2015 108.577 33.71C108.577 33.2217 108.462 32.8408 108.23 32.5674C108.003 32.2907 107.688 32.1523 107.288 32.1523C106.888 32.1523 106.575 32.2858 106.351 32.5527C106.126 32.8197 106.014 33.1924 106.014 33.6709ZM104.988 38.1777V31.3711H106.048V32.1279C106.172 31.835 106.368 31.6087 106.639 31.4492C106.912 31.2897 107.238 31.21 107.615 31.21C108.23 31.21 108.729 31.4378 109.109 31.8936C109.493 32.346 109.686 32.9417 109.686 33.6807C109.686 34.4587 109.497 35.0723 109.119 35.5215C108.745 35.9674 108.23 36.1904 107.576 36.1904C107.251 36.1904 106.961 36.1253 106.707 35.9951C106.456 35.8649 106.237 35.6663 106.048 35.3994V38.1777H104.988ZM110.716 29.3691C110.716 29.1901 110.781 29.0355 110.911 28.9053C111.045 28.7751 111.202 28.71 111.385 28.71C111.574 28.71 111.73 28.7734 111.854 28.9004C111.98 29.0241 112.044 29.1803 112.044 29.3691C112.044 29.5579 111.98 29.7174 111.854 29.8477C111.727 29.9746 111.57 30.0381 111.385 30.0381C111.202 30.0381 111.045 29.973 110.911 29.8428C110.781 29.7093 110.716 29.5514 110.716 29.3691ZM110.857 36V31.3711H111.917V36H110.857ZM113.436 36V31.3711H114.432V32.1279C114.643 31.8089 114.892 31.5762 115.179 31.4297C115.465 31.2832 115.813 31.21 116.224 31.21C116.569 31.21 116.862 31.2653 117.103 31.376C117.347 31.4834 117.537 31.6445 117.674 31.8594C117.755 31.9863 117.814 32.1344 117.85 32.3037C117.885 32.473 117.903 32.7692 117.903 33.1924V36H116.834V33.6221C116.834 33.0133 116.759 32.6097 116.609 32.4111C116.463 32.2093 116.201 32.1084 115.823 32.1084C115.576 32.1084 115.354 32.154 115.159 32.2451C114.967 32.3363 114.816 32.4648 114.705 32.6309C114.627 32.7415 114.572 32.8848 114.539 33.0605C114.51 33.2331 114.495 33.5098 114.495 33.8906V36H113.436ZM122.64 33.6709C122.64 33.1924 122.527 32.8197 122.303 32.5527C122.081 32.2858 121.771 32.1523 121.37 32.1523C120.97 32.1523 120.654 32.2907 120.423 32.5674C120.195 32.8408 120.081 33.2217 120.081 33.71C120.081 34.2015 120.192 34.5807 120.413 34.8477C120.634 35.1146 120.947 35.248 121.351 35.248C121.731 35.248 122.041 35.1032 122.278 34.8135C122.519 34.5238 122.64 34.1429 122.64 33.6709ZM123.67 35.7119C123.67 36.6169 123.489 37.2533 123.128 37.6211C122.767 37.9922 122.158 38.1777 121.302 38.1777C120.664 38.1777 120.154 38.0426 119.773 37.7725C119.393 37.5055 119.199 37.1491 119.192 36.7031L120.33 36.6982C120.346 36.8968 120.439 37.0482 120.608 37.1523C120.778 37.2565 121.015 37.3086 121.321 37.3086C121.774 37.3086 122.099 37.2093 122.298 37.0107C122.496 36.8122 122.597 36.4801 122.601 36.0146L122.61 35.3994C122.422 35.6663 122.2 35.8649 121.946 35.9951C121.696 36.1253 121.408 36.1904 121.082 36.1904C120.428 36.1904 119.912 35.9674 119.534 35.5215C119.16 35.0723 118.973 34.4587 118.973 33.6807C118.973 32.9417 119.165 32.346 119.549 31.8936C119.933 31.4378 120.434 31.21 121.053 31.21C121.43 31.21 121.753 31.2897 122.02 31.4492C122.29 31.6055 122.487 31.8317 122.61 32.1279V31.3711H123.67V35.7119ZM125.096 35.458C125.096 35.279 125.158 35.126 125.281 34.999C125.405 34.8721 125.556 34.8086 125.735 34.8086C125.914 34.8086 126.066 34.8721 126.189 34.999C126.313 35.126 126.375 35.279 126.375 35.458C126.375 35.6338 126.313 35.7835 126.189 35.9072C126.066 36.0277 125.914 36.0879 125.735 36.0879C125.556 36.0879 125.405 36.0277 125.281 35.9072C125.158 35.7835 125.096 35.6338 125.096 35.458ZM128.113 35.458C128.113 35.279 128.175 35.126 128.299 34.999C128.423 34.8721 128.574 34.8086 128.753 34.8086C128.932 34.8086 129.083 34.8721 129.207 34.999C129.331 35.126 129.393 35.279 129.393 35.458C129.393 35.6338 129.331 35.7835 129.207 35.9072C129.083 36.0277 128.932 36.0879 128.753 36.0879C128.574 36.0879 128.423 36.0277 128.299 35.9072C128.175 35.7835 128.113 35.6338 128.113 35.458Z" fill="#BFBFBF"/>
<defs>
<filter id="filter0_d_458_2369" x="0.234863" y="0.873962" width="68.4706" height="68.6026" filterUnits="userSpaceOnUse" color-interpolation-filters="sRGB">
<feFlood flood-opacity="0" result="BackgroundImageFix"/>
<feColorMatrix in="SourceAlpha" type="matrix" values="0 0 0 0 0 0 0 0 0 0 0 0 0 0 0 0 0 0 127 0" result="hardAlpha"/>
<feOffset dy="4"/>
<feGaussianBlur stdDeviation="10.5"/>
<feComposite in2="hardAlpha" operator="out"/>
<feColorMatrix type="matrix" values="0 0 0 0 0 0 0 0 0 0 0 0 0 0 0 0 0 0 0.1 0"/>
<feBlend mode="normal" in2="BackgroundImageFix" result="effect1_dropShadow_458_2369"/>
<feBlend mode="normal" in="SourceGraphic" in2="effect1_dropShadow_458_2369" result="shape"/>
</filter>
</defs>
</svg>
