<svg width="14" height="4" viewBox="0 0 14 4" fill="none" xmlns="http://www.w3.org/2000/svg">
<path d="M6.90219 0.164856C6.01028 0.164856 5.28053 0.894606 5.28053 1.78652C5.28053 2.67844 6.01028 3.40819 6.90219 3.40819C7.79411 3.40819 8.52386 2.67844 8.52386 1.78652C8.52386 0.894606 7.79411 0.164856 6.90219 0.164856ZM11.7672 0.164856C10.8753 0.164856 10.1455 0.894606 10.1455 1.78652C10.1455 2.67844 10.8753 3.40819 11.7672 3.40819C12.6591 3.40819 13.3889 2.67844 13.3889 1.78652C13.3889 0.894606 12.6591 0.164856 11.7672 0.164856ZM2.03719 0.164856C1.14528 0.164856 0.415527 0.894606 0.415527 1.78652C0.415527 2.67844 1.14528 3.40819 2.03719 3.40819C2.92911 3.40819 3.65886 2.67844 3.65886 1.78652C3.65886 0.894606 2.92911 0.164856 2.03719 0.164856Z" fill="#0060FF"/>
</svg>
