<svg width="11" height="8" viewBox="0 0 11 8" fill="none" xmlns="http://www.w3.org/2000/svg">
<path d="M0.121277 7.50504V6.45059C0.121277 6.18884 0.188582 5.9514 0.323194 5.73827C0.457805 5.52513 0.644765 5.36622 0.884074 5.26152C1.43 5.02221 1.9217 4.85021 2.35919 4.74551C2.79667 4.64081 3.24725 4.58846 3.71091 4.58846C4.17457 4.58846 4.62327 4.64081 5.05702 4.74551C5.49077 4.85021 5.9806 5.02221 6.52653 5.26152C6.76584 5.36622 6.95467 5.52513 7.09302 5.73827C7.23137 5.9514 7.30054 6.18884 7.30054 6.45059V7.50504H0.121277ZM3.71091 3.90419C3.21733 3.90419 2.8135 3.74714 2.49941 3.43305C2.18532 3.11896 2.02827 2.71512 2.02827 2.22155C2.02827 1.72798 2.18532 1.32414 2.49941 1.01005C2.8135 0.695956 3.21733 0.53891 3.71091 0.53891C4.20448 0.53891 4.60832 0.695956 4.92241 1.01005C5.2365 1.32414 5.39355 1.72798 5.39355 2.22155C5.39355 2.71512 5.2365 3.11896 4.92241 3.43305C4.60832 3.74714 4.20448 3.90419 3.71091 3.90419ZM7.74925 2.22155C7.74925 2.71512 7.5922 3.11896 7.27811 3.43305C6.96401 3.74714 6.56018 3.90419 6.06661 3.90419C5.98434 3.90419 5.89273 3.89858 5.79177 3.88736C5.69082 3.87615 5.59921 3.85558 5.51694 3.82567C5.69642 3.63871 5.83291 3.40875 5.92639 3.13578C6.01987 2.86282 6.06661 2.55808 6.06661 2.22155C6.06661 1.88502 6.01987 1.58776 5.92639 1.32975C5.83291 1.07175 5.69642 0.834307 5.51694 0.617433C5.59921 0.594998 5.69082 0.576302 5.79177 0.561345C5.89273 0.546388 5.98434 0.53891 6.06661 0.53891C6.56018 0.53891 6.96401 0.695956 7.27811 1.01005C7.5922 1.32414 7.74925 1.72798 7.74925 2.22155ZM7.9736 7.50504V6.45059C7.9736 5.97945 7.85394 5.59244 7.61463 5.28956C7.37533 4.98669 7.06123 4.74177 6.67236 4.55481C7.18837 4.61464 7.67446 4.70251 8.13064 4.81843C8.58683 4.93434 8.95701 5.06708 9.24119 5.21665C9.48797 5.35874 9.68241 5.53448 9.8245 5.74388C9.96659 5.95327 10.0376 6.18884 10.0376 6.45059V7.50504H7.9736Z" fill="white"/>
</svg>
