<svg width="22" height="20" viewBox="0 0 22 20" fill="none" xmlns="http://www.w3.org/2000/svg">
<path d="M0.649292 3.05113C0.649292 2.34558 0.928178 1.66893 1.4246 1.17004C1.92102 0.671145 2.59431 0.390869 3.29635 0.390869H19.1787C19.8808 0.390869 20.554 0.671145 21.0505 1.17004C21.5469 1.66893 21.8258 2.34558 21.8258 3.05113V16.3524C21.8258 17.0579 21.5469 17.7346 21.0505 18.2335C20.554 18.7324 19.8808 19.0127 19.1787 19.0127H3.29635C2.59431 19.0127 1.92102 18.7324 1.4246 18.2335C0.928178 17.7346 0.649292 17.0579 0.649292 16.3524V3.05113ZM1.97282 15.0223V16.3524C1.97282 16.7052 2.11226 17.0435 2.36047 17.2929C2.60868 17.5424 2.94533 17.6825 3.29635 17.6825H19.1787C19.5297 17.6825 19.8664 17.5424 20.1146 17.2929C20.3628 17.0435 20.5022 16.7052 20.5022 16.3524V11.697L15.5033 9.1072C15.3791 9.04471 15.2386 9.02304 15.1016 9.04524C14.9645 9.06744 14.8379 9.13239 14.7396 9.2309L9.82929 14.1657L6.3087 11.8087C6.18159 11.7236 6.02912 11.6854 5.87715 11.7004C5.72518 11.7154 5.58306 11.7828 5.47488 11.8912L1.97282 15.0223ZM8.59047 6.37645C8.59047 5.84729 8.38131 5.3398 8.00899 4.96563C7.63668 4.59146 7.13171 4.38125 6.60518 4.38125C6.07864 4.38125 5.57367 4.59146 5.20136 4.96563C4.82904 5.3398 4.61988 5.84729 4.61988 6.37645C4.61988 6.9056 4.82904 7.41309 5.20136 7.78726C5.57367 8.16143 6.07864 8.37164 6.60518 8.37164C7.13171 8.37164 7.63668 8.16143 8.00899 7.78726C8.38131 7.41309 8.59047 6.9056 8.59047 6.37645Z" fill="white"/>
</svg>
