<svg width="16" height="17" viewBox="0 0 16 17" fill="none" xmlns="http://www.w3.org/2000/svg">
<path d="M14.8026 8.14672L1.06895 0.829863C0.961313 0.772503 0.840406 0.74952 0.720792 0.763682C0.601177 0.777843 0.487955 0.828545 0.394756 0.909683C0.305752 0.989166 0.23932 1.09353 0.202928 1.21103C0.166536 1.32854 0.161626 1.45454 0.188752 1.57485L1.84303 8.07356H8.90337V9.40389H1.84303L0.163781 15.8826C0.138328 15.9831 0.135357 16.0886 0.155107 16.1905C0.174857 16.2924 0.216777 16.388 0.277495 16.4695C0.338214 16.551 0.416038 16.6162 0.504709 16.6598C0.59338 16.7035 0.690424 16.7243 0.788038 16.7208C0.88576 16.7201 0.98198 16.6951 1.06895 16.6476L14.8026 9.33072C14.9048 9.27491 14.9907 9.1901 15.0506 9.08565C15.1105 8.98119 15.1422 8.86115 15.1422 8.73872C15.1422 8.6163 15.1105 8.49625 15.0506 8.3918C14.9907 8.28735 14.9048 8.20254 14.8026 8.14672Z" fill="#354657"/>
</svg>
