<svg width="19" height="19" viewBox="0 0 19 19" fill="none" xmlns="http://www.w3.org/2000/svg">
<g clip-path="url(#clip0_458_2420)">
<path d="M9.5741 7.81132C9.5741 7.81132 8.28609 8.07074 9.33991 5.90897C10.101 4.3525 10.0132 2.53662 9.33991 1.58544C8.22754 0.0577897 6.09062 0.54779 6.3248 1.44132C7.0859 4.46779 5.35879 5.39015 4.4806 7.2925C3.57314 9.22368 3.66096 11.9907 4.07078 14.4407C4.33424 15.9684 5.00752 17.8707 7.43717 17.8707H10.8036L9.5741 7.81132Z" fill="#FFDD67"/>
<path d="M7.818 17.438C5.38835 17.438 4.86143 15.5357 4.59798 14.008C4.18816 11.558 4.12961 9.59803 4.91998 7.60921C5.79817 5.44744 6.70563 5.3898 6.70563 1.12391C6.70563 0.922147 6.82272 0.778029 6.93981 0.662735C6.52999 0.806853 6.29581 1.03744 6.29581 1.38332C6.29581 4.58274 5.38835 5.36097 4.51016 7.29215C3.57342 9.22333 3.66124 11.9904 4.07106 14.4404C4.33452 15.968 5.0078 17.8704 7.43745 17.8704H10.8038V17.438H7.818Z" fill="#EBA352"/>
<path d="M13.7311 10.3184H9.5743C8.11065 10.3184 8.11065 7.81071 9.5743 7.81071H13.7311C15.1947 7.81071 15.1947 10.3184 13.7311 10.3184Z" fill="#FFDD67"/>
<path d="M14.0524 9.91523H9.89562C8.90034 9.91523 8.60761 8.76229 8.92962 8.0417C8.13925 8.647 8.37343 10.3476 9.54435 10.3476H13.7304C14.1987 10.3476 14.5208 10.0882 14.6964 9.71347C14.5208 9.82876 14.3158 9.91523 14.0524 9.91523Z" fill="#EBA352"/>
<path d="M14.1694 12.8549H9.19302C7.43664 12.8549 7.43664 10.3473 9.19302 10.3473H14.1987C15.9258 10.3473 15.9258 12.8549 14.1694 12.8549Z" fill="#FFDD67"/>
<path d="M14.5797 12.4225H9.57405C8.40314 12.4225 8.02259 11.2695 8.43241 10.549C7.49567 11.1542 7.75913 12.8548 9.19351 12.8548H14.1992C14.7554 12.8548 15.1359 12.5954 15.3408 12.2207C15.1359 12.336 14.8725 12.4225 14.5797 12.4225Z" fill="#EBA352"/>
<path d="M13.7013 15.3628H9.48604C8.02239 15.3628 8.02239 12.8552 9.48604 12.8552H13.7013C15.1943 12.8552 15.1943 15.3628 13.7013 15.3628Z" fill="#FFDD67"/>
<path d="M14.0524 14.9303H9.80785C8.81257 14.9303 8.49057 13.7773 8.84184 13.0279C8.05147 13.6332 8.25638 15.3338 9.48585 15.3338H13.7012C14.1695 15.3338 14.4915 15.0744 14.6672 14.6997C14.5208 14.8726 14.2866 14.9303 14.0524 14.9303Z" fill="#EBA352"/>
<path d="M13.2619 17.8704H10.5396C8.95882 17.8704 8.95882 15.3627 10.5396 15.3627H13.2619C14.8427 15.3627 14.8427 17.8704 13.2619 17.8704Z" fill="#FFDD67"/>
<path d="M13.6131 17.4668H10.8907C9.83688 17.4668 9.48561 16.3139 9.86616 15.5645C9.01724 16.1697 9.25142 17.8703 10.5394 17.8703H13.2618C13.7887 17.8703 14.1107 17.6109 14.2864 17.2362C14.1107 17.3803 13.8766 17.4668 13.6131 17.4668Z" fill="#EBA352"/>
</g>
<defs>
<clipPath id="clip0_458_2420">
<rect width="18.7347" height="18.4471" fill="white" transform="translate(0.265259 3.05176e-05)"/>
</clipPath>
</defs>
</svg>
