<svg width="20" height="20" viewBox="0 0 20 20" fill="none" xmlns="http://www.w3.org/2000/svg">
<path d="M10.3319 16.6137H5.20743C2.6452 16.6137 1.79382 14.911 1.79382 13.2001V6.3729C1.79382 3.81066 2.6452 2.95929 5.20743 2.95929H10.3319C12.8941 2.95929 13.7455 3.81066 13.7455 6.3729V13.2001C13.7455 15.7623 12.886 16.6137 10.3319 16.6137Z" stroke="white" stroke-width="2.25" stroke-linecap="round" stroke-linejoin="round"/>
<path d="M15.9996 13.9218L13.7455 12.3406V7.22428L15.9996 5.64316C17.1023 4.87286 18.0105 5.34315 18.0105 6.69724V12.8758C18.0105 14.2299 17.1023 14.7002 15.9996 13.9218Z" stroke="white" stroke-width="2.25" stroke-linecap="round" stroke-linejoin="round"/>
<path d="M9.49677 8.97568C10.1685 8.97568 10.713 8.43115 10.713 7.75943C10.713 7.08772 10.1685 6.54318 9.49677 6.54318C8.82505 6.54318 8.28052 7.08772 8.28052 7.75943C8.28052 8.43115 8.82505 8.97568 9.49677 8.97568Z" stroke="white" stroke-width="2.25" stroke-linecap="round" stroke-linejoin="round"/>
</svg>
